# xmcd
# Copyright (C) 1995-1998 Ti Kan
#
# Track frame offsets:
#       150
#       18899
#       29681
#       39581
#       54954
#       67752
#       86082
#       104090
#       123008
#       139749
#       149384
#       165069
#
# Disc length: 2542 seconds
#
# Revision: 0
# Processed by: cddbd v1.5.1PL0 Copyright (c) Steve Scherf et al.
# Submitted via: CD-Transfer v1.0
#
DISCID=9609ec0c
DTITLE=Pub La Bomba - Start The Jet
DYEAR=2004
DGENRE=
TTITLE0=Eminent Cannonball
TTITLE1=Ten Monkeys
TTITLE2=Grand Slam
TTITLE3=Tamworth Hotdog
TTITLE4=So Long
TTITLE5=White Dog
TTITLE6=Get On
TTITLE7=Start The Jet
TTITLE8=Little Dart
TTITLE9=Solo Me
TTITLE10=Some Kind Of Race
TTITLE11=Dead Wolf
EXTD=
EXTT0=
EXTT1=
EXTT2=
EXTT3=
EXTT4=
EXTT5=
EXTT6=
EXTT7=
EXTT8=
EXTT9=
EXTT10=
EXTT11=
PLAYORDER=
